Coordinates
version=1
nRows=16
nColumns=36
inDegrees=yes

Units are S.I. units (second, meters, Newtons, ...)
If the header above contains a line with 'inDegrees', this indicates whether rotational values are in degrees (yes) or radians (no).

endheader
time	pelvis_tilt	pelvis_list	pelvis_rotation	pelvis_tx	pelvis_ty	pelvis_tz	hip_flexion_r	hip_adduction_r	hip_rotation_r	knee_angle_r	knee_angle_r_beta	ankle_angle_r	subtalar_angle_r	mtp_angle_r	hip_flexion_l	hip_adduction_l	hip_rotation_l	knee_angle_l	knee_angle_l_beta	ankle_angle_l	subtalar_angle_l	mtp_angle_l	lumbar_extension	lumbar_bending	lumbar_rotation	arm_flex_r	arm_add_r	arm_rot_r	elbow_flex_r	pro_sup_r	arm_flex_l	arm_add_l	arm_rot_l	elbow_flex_l	pro_sup_l
      0.99000000	     -2.48476039	      4.16531972	      3.18225949	     -0.76758205	      1.40824299	     -0.56980793	      4.69750460	     -0.86601392	     -0.99885805	     39.30262124	      0.68596015	    -14.80898483	    -16.63088303	     -3.92381287	     23.60750399	      2.61956852	     -2.51163084	     43.93878293	      0.76687643	     -9.22292713	     -7.31423608	     -3.92381287	     -5.47342694	      1.64555957	    -16.06429193	     58.88779414	    -20.11750095	     23.89426332	    106.94813258	    111.13883235	      1.09267725	    -44.63412375	    -26.46464383	    119.29523633	     92.18595967
      1.00000000	     -2.08058754	      4.03199611	      3.16435454	     -0.75572921	      1.41315901	     -0.56990884	      4.87066569	     -1.04404722	     -2.30706119	     39.24907258	      0.68502554	    -13.77832866	    -17.18843631	     -3.97200954	     22.89658854	      2.30957734	     -3.06618234	     41.87383762	      0.73083634	     -9.94333072	     -6.39819026	     -3.97200954	     -5.51569170	      1.63502288	    -15.93196329	     57.80713577	    -20.97956909	     23.72454721	    108.62413905	    111.33330319	     -0.71626630	    -45.43784412	    -27.44512550	    119.50418885	     92.35393170
      1.01000000	     -1.65505824	      3.79839167	      3.24909856	     -0.74384549	      1.41714443	     -0.57002550	      4.82965437	     -1.04608590	     -3.67498512	     38.61490033	      0.67395715	    -11.17271499	    -17.17645713	     -4.23215477	     22.13710966	      1.95627817	     -3.43239488	     39.72070454	      0.69325708	    -10.58900602	     -5.72603228	     -4.23215477	     -5.71443927	      1.82973421	    -17.16515667	     57.46492814	    -20.51656152	     24.51761659	    109.13154214	    111.62324297	     -5.41782549	    -46.01988801	    -31.72002512	    120.47075813	     93.08866514
      1.02000000	     -1.28518050	      3.44733928	      3.38570098	     -0.73207192	      1.42025773	     -0.56985083	      4.72837483	     -0.75201649	     -4.83960633	     37.29245388	      0.65087611	     -9.87495614	    -18.20476979	     -4.26855263	     21.41386792	      1.48928795	     -3.60894714	     37.44584153	      0.65355323	    -11.27677322	     -4.79886352	     -4.26855263	     -5.77755149	      2.03441426	    -17.08160733	     56.17742539	    -21.55442720	     24.43437315	    110.72895633	    111.72021303	     -7.12211399	    -46.74654264	    -32.59065499	    120.47768174	     93.14543546
      1.03000000	     -0.76900176	      3.09097798	      3.53457154	     -0.72015642	      1.42273118	     -0.56954427	      4.28667603	     -0.44713492	     -6.13652164	     35.25978281	      0.61539930	     -9.31620642	    -18.71214304	     -4.31382359	     20.42989842	      0.99230424	     -3.83906955	     34.94877805	      0.60997125	    -11.88928186	     -3.66427739	     -4.31382359	     -6.05994373	      2.23024178	    -17.18170960	     54.89385818	    -22.60909277	     24.53866813	    112.13443186	    111.78619734	     -9.20732574	    -47.38691781	    -33.88438746	    120.61800886	     93.21752508
      1.04000000	     -0.19472030	      2.68574357	      3.67501338	     -0.70835270	      1.42419008	     -0.56924139	      3.71321748	     -0.01550157	     -7.28909281	     32.81428291	      0.57271728	     -9.58809462	    -19.33034431	     -4.54866143	     19.38502050	      0.41265415	     -4.21697931	     32.43482496	      0.56609449	    -12.04430573	     -2.16257641	     -4.54866143	     -6.55162719	      2.57298079	    -18.57937975	     54.61015721	    -22.52413756	     25.96416373	    112.22579101	    111.55556844	    -14.33559055	    -47.53192038	    -38.65964418	    121.50254272	     93.49676002
      1.05000000	      0.24844849	      2.39281606	      3.71576391	     -0.69689699	      1.42448182	     -0.56917446	      3.47475250	      0.22767129	     -8.40464157	     30.57313402	      0.53360185	     -9.46879743	    -19.07894648	     -4.79874790	     18.43787462	      0.05354642	     -4.48335600	     29.76980310	      0.51958108	    -12.80470852	     -1.46184458	     -4.79874790	     -6.92136033	      2.72913206	    -19.10909616	     53.79259388	    -23.25138327	     26.80835721	    112.89737968	    111.29142108	    -17.66025806	    -47.77465300	    -41.46853198	    121.91004530	     93.47295158
      1.06000000	      0.66623991	      2.18540981	      3.62895973	     -0.68577033	      1.42369164	     -0.56907194	      3.45223534	      0.43246147	     -9.09182726	     28.53289147	      0.49799290	     -9.52242838	    -18.72621655	     -5.00916420	     17.48463768	     -0.18985993	     -4.69985763	     27.01791228	      0.47155153	    -13.55312615	     -1.02608751	     -5.00916420	     -7.32569308	      2.76288612	    -19.45193412	     52.92809990	    -23.88577767	     27.42820226	    113.40613160	    111.05103527	    -20.78093390	    -48.05581369	    -44.03568671	    122.21757112	     93.24266214
      1.07000000	      1.00218340	      1.98609995	      3.43400992	     -0.67474779	      1.42190436	     -0.56891646	      3.62143030	      0.62146645	     -9.62139094	     26.56484670	      0.46364404	     -9.84213017	    -18.10256745	     -5.06059559	     16.63857385	     -0.46448547	     -5.07878935	     24.28401676	      0.42383605	    -14.30616924	     -0.29107402	     -5.06059559	     -7.65015179	      2.73867507	    -19.14373915	     51.64387372	    -25.20865997	     27.66722602	    114.31081104	    110.97582048	    -22.65970212	    -48.49864056	    -45.31274515	    122.27294127	     93.14092359
      1.08000000	      1.18118222	      1.75286597	      3.18900788	     -0.66379717	      1.41884190	     -0.56875987	      3.99044881	      0.88327302	     -9.82269855	     24.55900496	      0.42863550	    -10.48902978	    -17.18601498	     -5.27419782	     16.01028853	     -0.74405634	     -5.29892948	     21.65643408	      0.37797608	    -14.95071879	      0.44834292	     -5.27419782	     -7.92360240	      2.79195896	    -19.98569258	     51.31924710	    -25.58928743	     29.18132312	    114.11590384	    110.83898196	    -27.30231547	    -47.97279683	    -49.59838336	    123.00081179	     92.90690124
      1.09000000	      1.32681367	      1.57913046	      2.84621063	     -0.65281168	      1.41481847	     -0.56836600	      4.45631753	      1.11672700	     -9.69255398	     22.60158466	      0.39447207	    -11.47508786	    -15.99400694	     -5.33984262	     15.38412282	     -0.98311459	     -5.50391611	     18.98895996	      0.33141987	    -15.57566818	      1.29236848	     -5.33984262	     -8.08680389	      2.70408357	    -19.67759241	     50.14433344	    -26.92022879	     29.65404882	    114.70585972	    110.83450985	    -29.56433419	    -48.13983295	    -51.23767820	    123.12419017	     92.79098077
      1.10000000	      1.19271453	      1.39433270	      2.53412698	     -0.64186132	      1.40942236	     -0.56789907	      5.32151848	      1.35973906	     -9.38472147	     20.80839694	      0.36317504	    -12.59929811	    -14.50942204	     -5.36196637	     15.11456284	     -1.20484095	     -5.47725427	     16.44167597	      0.28696138	    -15.94754557	      2.05890853	     -5.36196637	     -7.88026148	      2.61291817	    -19.23364507	     48.85106345	    -28.38368840	     30.21956569	    115.21123395	    110.82985921	    -31.41571986	    -48.31464210	    -52.32440276	    123.11607756	     92.70455875
      1.11000000	      1.45833711	      1.28807219	      2.20276456	     -0.63092262	      1.40343417	     -0.56739871	      5.69418849	      1.49227413	     -9.24128592	     18.88407805	      0.32958934	    -13.64312303	    -12.63272275	     -5.50808928	     14.35980936	     -1.37640501	     -5.53048071	     13.79905315	      0.24083891	    -16.32948622	      2.75273491	     -5.50808928	     -8.41493235	      2.44415733	    -20.48622534	     48.96048389	    -28.27681418	     32.04733706	    114.45856094	    110.85462362	    -36.97063112	    -46.83081032	    -57.78079298	    124.34119273	     92.32458655
      1.12000000	      1.50574542	      1.11700567	      1.84496642	     -0.62014090	      1.39624019	     -0.56698325	      6.26863720	      1.69616545	     -8.88358590	     16.85482470	      0.29417219	    -14.81437051	    -10.54048795	     -5.60978060	     13.90118736	     -1.61186090	     -5.48176661	     11.30539793	      0.19731642	    -16.31907556	      3.24841243	     -5.60978060	     -8.55898707	      2.34303481	    -20.43389951	     48.17292222	    -29.51429988	     33.07222645	    114.60097671	    110.82892285	    -39.64466662	    -46.29296479	    -60.01831757	    124.74689090	     92.12295869
      1.13000000	      1.56349879	      0.92877547	      1.49924930	     -0.60935412	      1.38801592	     -0.56651559	      6.76888328	      1.91249469	     -8.57607208	     14.72455139	      0.25699190	    -15.86365498	     -8.16321599	     -5.67657062	     13.47842416	     -1.89908244	     -5.51625184	      8.95147490	      0.15623271	    -16.11517428	      3.80617531	     -5.67657062	     -8.73039297	      2.26901809	    -20.21820604	     47.30582586	    -31.03525753	     34.03527801	    114.96018260	    110.83433620	    -42.02512183	    -45.81698085	    -61.96483905	    125.11699294	     92.07093974
      1.14000000	      1.59259814	      0.76129347	      1.21464937	     -0.59856098	      1.37861123	     -0.56597108	      7.35601920	      2.03199775	     -8.70024200	     12.79908234	      0.22338613	    -16.33763602	     -5.13253298	     -5.79159241	     13.17734254	     -2.19143152	     -5.67323463	      6.82424301	      0.11910551	    -15.73006675	      4.62034982	     -5.79159241	     -8.88394465	      2.16920342	    -20.45747498	     46.83927834	    -32.31656858	     35.60229893	    115.04604311	    110.80174327	    -45.13156113	    -44.78958685	    -64.64164057	    125.68620450	     92.05686413
